<svg width="25" height="24" viewBox="0 0 25 24" fill="none" xmlns="http://www.w3.org/2000/svg">
<g clip-path="url(#clip0_125_5378)">
<path d="M3.7998 10C3.7998 10.9193 3.98087 11.8295 4.33265 12.6788C4.68443 13.5281 5.20005 14.2997 5.85006 14.9497C6.50007 15.5998 7.27174 16.1154 8.12102 16.4672C8.9703 16.8189 9.88055 17 10.7998 17C11.7191 17 12.6293 16.8189 13.4786 16.4672C14.3279 16.1154 15.0995 15.5998 15.7496 14.9497C16.3996 14.2997 16.9152 13.5281 17.267 12.6788C17.6187 11.8295 17.7998 10.9193 17.7998 10C17.7998 9.08075 17.6187 8.1705 17.267 7.32122C16.9152 6.47194 16.3996 5.70026 15.7496 5.05025C15.0995 4.40024 14.3279 3.88463 13.4786 3.53284C12.6293 3.18106 11.7191 3 10.7998 3C9.88055 3 8.9703 3.18106 8.12102 3.53284C7.27174 3.88463 6.50007 4.40024 5.85006 5.05025C5.20005 5.70026 4.68443 6.47194 4.33265 7.32122C3.98087 8.1705 3.7998 9.08075 3.7998 10Z" stroke="#293246" stroke-width="2" stroke-linecap="round" stroke-linejoin="round"/>
<path d="M21.7998 21L15.7998 15" stroke="#293246" stroke-width="2" stroke-linecap="round" stroke-linejoin="round"/>
</g>
<defs>
<clipPath id="clip0_125_5378">
<rect width="24" height="24" fill="white" transform="translate(0.799805)"/>
</clipPath>
</defs>
</svg>
